<svg width="44" height="44" viewBox="0 0 44 44" fill="none" xmlns="http://www.w3.org/2000/svg">
<path d="M22 39.4169C31.6189 39.4169 39.4169 31.6189 39.4169 22C39.4169 12.381 31.6189 4.58301 22 4.58301C12.381 4.58301 4.58301 12.381 4.58301 22C4.58301 31.6189 12.381 39.4169 22 39.4169ZM10.6562 10.6562C13.2802 8.03244 16.7327 6.39963 20.4255 6.03598C24.1183 5.67232 27.823 6.60032 30.9083 8.66186C33.9937 10.7234 36.2688 13.7909 37.346 17.3418C38.4232 20.8927 38.236 24.7073 36.8161 28.1355C35.3962 31.5638 32.8315 34.3938 29.5591 36.1432C26.2867 37.8926 22.5089 38.4532 18.8695 37.7296C15.23 37.0059 11.9541 35.0428 9.59974 32.1746C7.24543 29.3064 5.95843 25.7106 5.95801 22C5.95202 19.8924 6.36419 17.8046 7.17064 15.8574C7.9771 13.9102 9.16182 12.1424 10.6562 10.6562Z" fill="#003B5C"/>
<path d="M28.4859 15.5053C28.422 15.4414 28.3462 15.3907 28.2628 15.3561C28.1793 15.3215 28.0898 15.3037 27.9995 15.3037C27.9091 15.3037 27.8197 15.3215 27.7362 15.3561C27.6528 15.3907 27.5769 15.4414 27.5131 15.5053L21.9916 21.0268L16.4787 15.5139C16.4149 15.45 16.339 15.3993 16.2556 15.3647C16.1721 15.3301 16.0826 15.3123 15.9923 15.3123C15.9019 15.3123 15.8125 15.3301 15.729 15.3647C15.6456 15.3993 15.5697 15.45 15.5059 15.5139C15.3771 15.6429 15.3047 15.8177 15.3047 15.9999C15.3047 16.1822 15.3771 16.357 15.5059 16.4859L21.0196 22.0005L15.5196 27.5005C15.4557 27.5644 15.405 27.6402 15.3704 27.7236C15.3358 27.8071 15.318 27.8966 15.318 27.9869C15.318 28.0773 15.3358 28.1667 15.3704 28.2502C15.405 28.3336 15.4557 28.4095 15.5196 28.4733C15.6486 28.6021 15.8234 28.6745 16.0056 28.6745C16.1879 28.6745 16.3627 28.6021 16.4916 28.4733L21.9916 22.9733L27.5002 28.4776C27.6291 28.6064 27.8039 28.6788 27.9862 28.6788C28.1684 28.6788 28.3432 28.6064 28.4721 28.4776C28.5361 28.4138 28.5868 28.3379 28.6214 28.2545C28.656 28.171 28.6738 28.0816 28.6738 27.9912C28.6738 27.9009 28.656 27.8114 28.6214 27.7279C28.5868 27.6445 28.5361 27.5686 28.4721 27.5048L22.9635 22.0005L28.4859 16.479C28.5499 16.4152 28.6008 16.3393 28.6354 16.2557C28.6701 16.1722 28.688 16.0826 28.688 15.9922C28.688 15.9017 28.6701 15.8122 28.6354 15.7286C28.6008 15.6451 28.5499 15.5692 28.4859 15.5053Z" fill="#003B5C"/>
</svg>
