<svg viewBox="0 0 26 26" fill="none" xmlns="http://www.w3.org/2000/svg">
<path d="M12.3572 21.5097H5.67188C4.8268 21.5087 4.01663 21.1725 3.41907 20.575C2.82151 19.9774 2.48537 19.1672 2.48438 18.3222V5.6781C2.48537 4.83303 2.82151 4.02285 3.41907 3.42529C4.01663 2.82774 4.8268 2.49159 5.67188 2.4906H12.3572C13.2023 2.49159 14.0124 2.82774 14.61 3.42529C15.2076 4.02285 15.5437 4.83303 15.5447 5.6781V8.00732C15.5447 8.10678 15.5052 8.20216 15.4349 8.27248C15.3645 8.34281 15.2691 8.38232 15.1697 8.38232C15.0702 8.38232 14.9748 8.34281 14.9045 8.27248C14.8342 8.20216 14.7947 8.10678 14.7947 8.00732V5.6781C14.7939 5.03186 14.5369 4.41231 14.0799 3.95535C13.623 3.49839 13.0034 3.24134 12.3572 3.2406H5.67188C5.02564 3.24134 4.40608 3.49839 3.94912 3.95535C3.49217 4.41231 3.23512 5.03186 3.23438 5.6781V18.3222C3.23512 18.9684 3.49217 19.588 3.94912 20.0449C4.40608 20.5019 5.02564 20.7589 5.67188 20.7597H12.3572C13.0034 20.7589 13.623 20.5019 14.0799 20.0449C14.5369 19.588 14.7939 18.9684 14.7947 18.3222V16.0075C14.7947 15.908 14.8342 15.8126 14.9045 15.7423C14.9748 15.672 15.0702 15.6325 15.1697 15.6325C15.2691 15.6325 15.3645 15.672 15.4349 15.7423C15.5052 15.8126 15.5447 15.908 15.5447 16.0075V18.3222C15.5437 19.1672 15.2076 19.9774 14.61 20.575C14.0124 21.1725 13.2023 21.5087 12.3572 21.5097Z" fill="#003B5C"/>
<path d="M21.4018 11.7361L18.1407 8.48438L17.6115 9.01547L20.2332 11.6273H7.00836V12.3773H20.237L17.634 14.9906L18.1655 15.5198L21.4032 12.2691C21.4384 12.234 21.4663 12.1923 21.4853 12.1464C21.5043 12.1005 21.5141 12.0513 21.5141 12.0016C21.5141 11.952 21.5043 11.9028 21.4853 11.8569C21.4663 11.811 21.4384 11.7693 21.4032 11.7342L21.4018 11.7361Z" fill="#003B5C"/>
</svg>
